<svg width="167" height="51" viewBox="0 0 167 51" fill="none" xmlns="http://www.w3.org/2000/svg">
<g filter="url(#filter0_i_1_17)">
<path d="M25 0.5C11.193 0.5 0 11.6943 0 25.5028C0 39.3113 11.193 50.5 25 50.5C38.807 50.5 50 39.3057 50 25.4972C50 11.6887 38.8014 0.5 25 0.5ZM34.7688 26.4357L17.4207 36.4569C16.7002 36.8702 15.8009 36.3507 15.8009 35.524V15.4816C15.8009 14.6493 16.7002 14.1298 17.4207 14.5487L34.7688 24.5644C35.4893 24.9833 35.4893 26.0223 34.7688 26.4357Z" fill="#FF0B0B"/>
</g>
<g filter="url(#filter1_i_1_17)">
<path d="M64.24 16.99C65.8827 16.99 67.1587 17.4007 68.068 18.222C68.9773 19.0287 69.432 20.1287 69.432 21.522C69.432 23.1793 68.9407 24.4553 67.958 25.35C66.99 26.23 65.5967 26.67 63.778 26.67H60.016L59.686 30.938C59.642 31.4513 59.4513 31.862 59.114 32.17C58.7913 32.478 58.366 32.632 57.838 32.632C57.31 32.632 56.8993 32.478 56.606 32.17C56.3273 31.862 56.21 31.444 56.254 30.916L57.222 18.596C57.266 18.0827 57.4347 17.6867 57.728 17.408C58.036 17.1293 58.4467 16.99 58.96 16.99H64.24ZM63.47 24.074C65.3033 24.074 66.22 23.2893 66.22 21.72C66.22 21.0013 66.022 20.4733 65.626 20.136C65.23 19.784 64.6213 19.608 63.8 19.608H60.566L60.214 24.074H63.47ZM72.4233 32.5C71.91 32.5 71.5213 32.3607 71.2573 32.082C71.008 31.8033 70.9053 31.4073 70.9493 30.894L71.9173 18.552C71.9613 18.0387 72.1446 17.6353 72.4673 17.342C72.8046 17.034 73.2373 16.88 73.7653 16.88C74.2933 16.88 74.6966 17.034 74.9753 17.342C75.2686 17.65 75.3933 18.0607 75.3493 18.574L74.4693 29.706H80.0793C80.578 29.706 80.952 29.816 81.2013 30.036C81.4653 30.256 81.5973 30.5713 81.5973 30.982C81.5973 31.51 81.4506 31.8987 81.1573 32.148C80.8786 32.3827 80.4533 32.5 79.8813 32.5H72.4233ZM97.7123 30.564C97.7856 30.784 97.8223 30.9673 97.8223 31.114C97.8223 31.5393 97.6463 31.8987 97.2943 32.192C96.957 32.4707 96.5683 32.61 96.1283 32.61C95.835 32.61 95.571 32.5367 95.3363 32.39C95.1016 32.2287 94.9256 31.9867 94.8083 31.664L93.8843 29.068H86.6463L85.3263 31.664C85.165 31.972 84.9523 32.2067 84.6883 32.368C84.439 32.5147 84.1676 32.588 83.8743 32.588C83.4636 32.588 83.097 32.456 82.7743 32.192C82.4663 31.928 82.3123 31.5907 82.3123 31.18C82.3123 30.9453 82.3856 30.6887 82.5323 30.41L89.2643 17.936C89.455 17.584 89.719 17.3127 90.0563 17.122C90.3936 16.9313 90.753 16.836 91.1343 16.836C91.5156 16.836 91.8676 16.9313 92.1903 17.122C92.513 17.3127 92.7403 17.584 92.8723 17.936L97.7123 30.564ZM87.9663 26.472H92.9823L90.9143 20.664L87.9663 26.472ZM108.427 17.452C108.779 17.0413 109.189 16.836 109.659 16.836C110.055 16.836 110.399 16.99 110.693 17.298C111.001 17.5913 111.155 17.9433 111.155 18.354C111.155 18.7353 111.008 19.102 110.715 19.454L105.567 25.504L105.149 30.938C105.105 31.4807 104.907 31.8987 104.555 32.192C104.217 32.4853 103.807 32.632 103.323 32.632C102.809 32.632 102.399 32.4853 102.091 32.192C101.797 31.8987 101.673 31.4733 101.717 30.916L102.135 25.504L97.8887 19.366C97.7127 19.1313 97.6247 18.86 97.6247 18.552C97.6247 18.112 97.8007 17.7233 98.1527 17.386C98.5047 17.0487 98.9007 16.88 99.3407 16.88C99.8247 16.88 100.206 17.0927 100.485 17.518L104.027 22.732L108.427 17.452Z" fill="#1804FF"/>
</g>
<path d="M68.068 18.222L67.3977 18.9641L67.4044 18.9701L68.068 18.222ZM67.958 25.35L68.6307 26.0899L68.6312 26.0894L67.958 25.35ZM60.016 26.67V25.67H59.0903L59.019 26.5929L60.016 26.67ZM59.686 30.938L60.6824 31.0234L60.683 31.0151L59.686 30.938ZM59.114 32.17L58.4397 31.4315L58.4315 31.439L58.4235 31.4466L59.114 32.17ZM56.606 32.17L55.8645 32.8409L55.873 32.8504L55.8819 32.8597L56.606 32.17ZM56.254 30.916L57.2506 30.999L57.2509 30.9943L56.254 30.916ZM57.222 18.596L56.2256 18.5106L56.2251 18.5177L57.222 18.596ZM57.728 17.408L57.0571 16.6665L57.0481 16.6746L57.0393 16.683L57.728 17.408ZM65.626 20.136L64.9616 20.8834L64.9695 20.8904L64.9775 20.8972L65.626 20.136ZM60.566 19.608V18.608H59.6417L59.5691 19.5294L60.566 19.608ZM60.214 24.074L59.2171 23.9954L59.1321 25.074H60.214V24.074ZM64.24 17.99C65.7207 17.99 66.7271 18.3584 67.3977 18.9641L68.7383 17.4799C67.5902 16.4429 66.0447 15.99 64.24 15.99V17.99ZM67.4044 18.9701C68.0674 19.5583 68.432 20.3684 68.432 21.522H70.432C70.432 19.889 69.8872 18.4991 68.7316 17.4739L67.4044 18.9701ZM68.432 21.522C68.432 22.9725 68.0099 23.9504 67.2848 24.6106L68.6312 26.0894C69.8715 24.9603 70.432 23.3862 70.432 21.522H68.432ZM67.2853 24.6101C66.5626 25.2671 65.4453 25.67 63.778 25.67V27.67C65.7481 27.67 67.4174 27.1929 68.6307 26.0899L67.2853 24.6101ZM63.778 25.67H60.016V27.67H63.778V25.67ZM59.019 26.5929L58.689 30.8609L60.683 31.0151L61.013 26.7471L59.019 26.5929ZM58.6897 30.8526C58.6642 31.15 58.5674 31.315 58.4397 31.4315L59.7883 32.9085C60.3353 32.409 60.6198 31.7527 60.6823 31.0234L58.6897 30.8526ZM58.4235 31.4466C58.3204 31.5451 58.1592 31.632 57.838 31.632V33.632C58.5728 33.632 59.2623 33.4109 59.8045 32.8934L58.4235 31.4466ZM57.838 31.632C57.5132 31.632 57.3911 31.5443 57.3301 31.4803L55.8819 32.8597C56.4076 33.4117 57.1068 33.632 57.838 33.632V31.632ZM57.3475 31.4991C57.3026 31.4494 57.2228 31.3319 57.2505 30.999L55.2575 30.833C55.1972 31.5561 55.3521 32.2746 55.8645 32.8409L57.3475 31.4991ZM57.2509 30.9943L58.2189 18.6743L56.2251 18.5177L55.2571 30.8377L57.2509 30.9943ZM58.2183 18.6814C58.2474 18.343 58.345 18.2011 58.4167 18.133L57.0393 16.683C56.5243 17.1722 56.2846 17.8223 56.2257 18.5106L58.2183 18.6814ZM58.3989 18.1495C58.4823 18.0741 58.6335 17.99 58.96 17.99V15.99C58.2598 15.99 57.5897 16.1846 57.0571 16.6665L58.3989 18.1495ZM58.96 17.99H64.24V15.99H58.96V17.99ZM63.47 25.074C64.5061 25.074 65.4697 24.8556 66.1828 24.2452C66.9256 23.6093 67.22 22.7029 67.22 21.72H65.22C65.22 22.3064 65.056 22.577 64.8822 22.7258C64.6786 22.9001 64.2673 23.074 63.47 23.074V25.074ZM67.22 21.72C67.22 20.8254 66.9694 19.9667 66.2745 19.3748L64.9775 20.8972C65.0746 20.9799 65.22 21.1773 65.22 21.72H67.22ZM66.2904 19.3886C65.6335 18.8047 64.7371 18.608 63.8 18.608V20.608C64.5056 20.608 64.8265 20.7633 64.9616 20.8834L66.2904 19.3886ZM63.8 18.608H60.566V20.608H63.8V18.608ZM59.5691 19.5294L59.2171 23.9954L61.2109 24.1526L61.5629 19.6866L59.5691 19.5294ZM60.214 25.074H63.47V23.074H60.214V25.074ZM71.2573 32.082L70.5121 32.7488L70.5216 32.7594L70.5314 32.7697L71.2573 32.082ZM70.9493 30.894L71.9457 30.9794L71.9463 30.9722L70.9493 30.894ZM71.9173 18.552L70.9209 18.4666L70.9204 18.4738L71.9173 18.552ZM72.4673 17.342L73.14 18.0819L73.1416 18.0805L72.4673 17.342ZM74.9753 17.342L74.2338 18.0129L74.2424 18.0224L74.2512 18.0317L74.9753 17.342ZM75.3493 18.574L74.3529 18.4886L74.3524 18.4952L75.3493 18.574ZM74.4693 29.706L73.4724 29.6272L73.3871 30.706H74.4693V29.706ZM81.2013 30.036L80.5397 30.7858L80.5503 30.7952L80.5611 30.8042L81.2013 30.036ZM81.1573 32.148L81.8015 32.9129L81.805 32.9099L81.1573 32.148ZM72.4233 31.5C72.0882 31.5 72.001 31.413 71.9833 31.3943L70.5314 32.7697C71.0416 33.3083 71.7318 33.5 72.4233 33.5V31.5ZM72.0026 31.4152C71.9981 31.4102 71.916 31.3251 71.9457 30.9794L69.953 30.8086C69.8946 31.4896 70.0179 32.1965 70.5121 32.7488L72.0026 31.4152ZM71.9463 30.9722L72.9143 18.6302L70.9204 18.4738L69.9524 30.8158L71.9463 30.9722ZM72.9137 18.6374C72.9403 18.3268 73.037 18.1756 73.14 18.0819L71.7946 16.6021C71.2523 17.0951 70.9823 17.7506 70.921 18.4666L72.9137 18.6374ZM73.1416 18.0805C73.2661 17.9668 73.4453 17.88 73.7653 17.88V15.88C73.0293 15.88 72.3432 16.1012 71.793 16.6035L73.1416 18.0805ZM73.7653 17.88C74.0925 17.88 74.1934 17.9683 74.2338 18.0129L75.7168 16.6711C75.1999 16.0997 74.4941 15.88 73.7653 15.88V17.88ZM74.2512 18.0317C74.3056 18.0888 74.3781 18.195 74.353 18.4886L76.3457 18.6594C76.4085 17.9263 76.2317 17.2112 75.6994 16.6523L74.2512 18.0317ZM74.3524 18.4952L73.4724 29.6272L75.4662 29.7848L76.3462 18.6528L74.3524 18.4952ZM74.4693 30.706H80.0793V28.706H74.4693V30.706ZM80.0793 30.706C80.2583 30.706 80.3777 30.7261 80.4516 30.7479C80.4875 30.7584 80.5102 30.7686 80.523 30.7754C80.5295 30.7788 80.5337 30.7815 80.5361 30.7832C80.5385 30.7848 80.5396 30.7858 80.5397 30.7858L81.8629 29.2862C81.3584 28.841 80.7035 28.706 80.0793 28.706V30.706ZM80.5611 30.8042C80.5704 30.8119 80.5722 30.815 80.5759 30.8236C80.5815 30.837 80.5973 30.8831 80.5973 30.982H82.5973C82.5973 30.3385 82.3784 29.7152 81.8415 29.2678L80.5611 30.8042ZM80.5973 30.982C80.5973 31.1566 80.5727 31.2609 80.5517 31.3164C80.5333 31.3652 80.5172 31.3797 80.5097 31.3861L81.805 32.9099C82.3964 32.4072 82.5973 31.6889 82.5973 30.982H80.5973ZM80.5132 31.3831C80.4927 31.4003 80.3448 31.5 79.8813 31.5V33.5C80.5618 33.5 81.2646 33.365 81.8014 32.9129L80.5132 31.3831ZM79.8813 31.5H72.4233V33.5H79.8813V31.5ZM97.7123 30.564L98.661 30.2478L98.654 30.2268L98.6461 30.2061L97.7123 30.564ZM97.2943 32.192L97.9312 32.963L97.9345 32.9602L97.2943 32.192ZM95.3363 32.39L94.7698 33.214L94.7878 33.2264L94.8063 33.238L95.3363 32.39ZM94.8083 31.664L93.8662 31.9993L93.8685 32.0057L94.8083 31.664ZM93.8843 29.068L94.8264 28.7327L94.5898 28.068H93.8843V29.068ZM86.6463 29.068V28.068H86.0329L85.7549 28.6148L86.6463 29.068ZM85.3263 31.664L86.2122 32.128L86.2177 32.1172L85.3263 31.664ZM84.6883 32.368L85.1953 33.2299L85.2026 33.2257L85.2098 33.2213L84.6883 32.368ZM82.7743 32.192L82.1235 32.9513L82.1322 32.9587L82.1411 32.966L82.7743 32.192ZM82.5323 30.41L81.6522 29.935L81.6474 29.9443L82.5323 30.41ZM89.2643 17.936L88.385 17.4597L88.3843 17.4611L89.2643 17.936ZM90.0563 17.122L89.5643 16.2514L89.5643 16.2514L90.0563 17.122ZM92.1903 17.122L92.699 16.2611L92.699 16.2611L92.1903 17.122ZM92.8723 17.936L91.936 18.2871L91.9385 18.2939L92.8723 17.936ZM87.9663 26.472L87.0746 26.0194L86.3373 27.472H87.9663V26.472ZM92.9823 26.472V27.472H94.3999L93.9244 26.1366L92.9823 26.472ZM90.9143 20.664L91.8564 20.3286L91.0758 18.1364L90.0226 20.2114L90.9143 20.664ZM96.7636 30.8802C96.7902 30.9598 96.8057 31.0199 96.8142 31.0626C96.823 31.1064 96.8223 31.1216 96.8223 31.114H98.8223C98.8223 30.8161 98.751 30.5177 98.661 30.2478L96.7636 30.8802ZM96.8223 31.114C96.8223 31.2174 96.7982 31.3037 96.6541 31.4238L97.9345 32.9602C98.4944 32.4936 98.8223 31.8613 98.8223 31.114H96.8223ZM96.6574 31.421C96.5004 31.5507 96.3373 31.61 96.1283 31.61V33.61C96.7994 33.61 97.4135 33.3906 97.9312 32.963L96.6574 31.421ZM96.1283 31.61C96.0106 31.61 95.9324 31.5833 95.8663 31.542L94.8063 33.238C95.2096 33.49 95.6593 33.61 96.1283 33.61V31.61ZM95.9028 31.566C95.8726 31.5452 95.8092 31.4903 95.7481 31.3223L93.8685 32.0057C94.0421 32.483 94.3307 32.9122 94.7698 33.214L95.9028 31.566ZM95.7504 31.3287L94.8264 28.7327L92.9422 29.4033L93.8662 31.9993L95.7504 31.3287ZM93.8843 28.068H86.6463V30.068H93.8843V28.068ZM85.7549 28.6148L84.4349 31.2108L86.2177 32.1172L87.5377 29.5212L85.7549 28.6148ZM84.4405 31.2C84.3525 31.368 84.2579 31.4591 84.1669 31.5147L85.2098 33.2213C85.6467 32.9543 85.9775 32.576 86.2121 32.128L84.4405 31.2ZM84.1813 31.5061C84.0879 31.561 83.992 31.588 83.8743 31.588V33.588C84.3433 33.588 84.7901 33.4683 85.1953 33.2299L84.1813 31.5061ZM83.8743 31.588C83.6983 31.588 83.5545 31.5383 83.4076 31.418L82.1411 32.966C82.6394 33.3737 83.229 33.588 83.8743 33.588V31.588ZM83.4251 31.4327C83.3419 31.3614 83.3123 31.3029 83.3123 31.18H81.3123C81.3123 31.8784 81.5907 32.4946 82.1235 32.9513L83.4251 31.4327ZM83.3123 31.18C83.3123 31.1535 83.3214 31.0578 83.4172 30.8757L81.6474 29.9443C81.4499 30.3195 81.3123 30.7371 81.3123 31.18H83.3123ZM83.4123 30.8849L90.1443 18.4109L88.3843 17.4611L81.6523 29.9351L83.4123 30.8849ZM90.1436 18.4123C90.2479 18.2197 90.3802 18.0876 90.5484 17.9926L89.5643 16.2514C89.0578 16.5377 88.662 16.9483 88.385 17.4597L90.1436 18.4123ZM90.5484 17.9926C90.7381 17.8853 90.9283 17.836 91.1343 17.836V15.836C90.5777 15.836 90.0492 15.9774 89.5643 16.2514L90.5484 17.9926ZM91.1343 17.836C91.34 17.836 91.5158 17.885 91.6816 17.9829L92.699 16.2611C92.2195 15.9777 91.6913 15.836 91.1343 15.836V17.836ZM91.6816 17.9829C91.807 18.0571 91.8839 18.1482 91.936 18.2871L93.8086 17.5849C93.5967 17.0198 93.2189 16.5683 92.699 16.2611L91.6816 17.9829ZM91.9385 18.2939L96.7785 30.9219L98.6461 30.2061L93.8061 17.5781L91.9385 18.2939ZM87.9663 27.472H92.9823V25.472H87.9663V27.472ZM93.9244 26.1366L91.8564 20.3286L89.9722 20.9994L92.0402 26.8074L93.9244 26.1366ZM90.0226 20.2114L87.0746 26.0194L88.858 26.9246L91.806 21.1166L90.0226 20.2114ZM108.427 17.452L107.667 16.8011L107.658 16.8118L108.427 17.452ZM110.693 17.298L109.969 17.9877L109.985 18.0053L110.003 18.0221L110.693 17.298ZM110.715 19.454L111.476 20.1021L111.483 20.0942L110.715 19.454ZM105.567 25.504L104.805 24.8559L104.595 25.1034L104.57 25.4273L105.567 25.504ZM105.149 30.938L106.145 31.0188L106.146 31.0147L105.149 30.938ZM104.555 32.192L103.914 31.4238L103.906 31.4305L103.898 31.4374L104.555 32.192ZM102.091 32.192L101.384 32.8991L101.392 32.9077L101.401 32.9161L102.091 32.192ZM101.717 30.916L102.714 30.9947L102.714 30.993L101.717 30.916ZM102.135 25.504L103.132 25.581L103.159 25.2271L102.957 24.9351L102.135 25.504ZM97.8887 19.366L98.7111 18.7971L98.7002 18.7813L98.6887 18.766L97.8887 19.366ZM98.1527 17.386L98.8446 18.108L98.8446 18.108L98.1527 17.386ZM100.485 17.518L99.6482 18.066L99.6528 18.073L99.6575 18.0799L100.485 17.518ZM104.027 22.732L103.199 23.2939L103.945 24.3917L104.795 23.3722L104.027 22.732ZM109.186 18.1028C109.38 17.8762 109.527 17.836 109.659 17.836V15.836C108.851 15.836 108.177 16.2065 107.667 16.8012L109.186 18.1028ZM109.659 17.836C109.759 17.836 109.848 17.8615 109.969 17.9877L111.417 16.6083C110.95 16.1185 110.35 15.836 109.659 15.836V17.836ZM110.003 18.0221C110.121 18.1343 110.155 18.2278 110.155 18.354H112.155C112.155 17.6588 111.881 17.0484 111.382 16.5739L110.003 18.0221ZM110.155 18.354C110.155 18.4566 110.121 18.6038 109.946 18.8138L111.483 20.0942C111.895 19.6002 112.155 19.0141 112.155 18.354H110.155ZM109.953 18.8059L104.805 24.8559L106.328 26.152L111.476 20.102L109.953 18.8059ZM104.57 25.4273L104.152 30.8613L106.146 31.0147L106.564 25.5807L104.57 25.4273ZM104.152 30.8572C104.125 31.1864 104.022 31.3344 103.914 31.4238L105.195 32.9602C105.792 32.463 106.084 31.7749 106.145 31.0188L104.152 30.8572ZM103.898 31.4374C103.759 31.5589 103.587 31.632 103.323 31.632V33.632C104.026 33.632 104.676 33.4118 105.211 32.9466L103.898 31.4374ZM103.323 31.632C103.01 31.632 102.865 31.5487 102.78 31.4679L101.401 32.9161C101.932 33.4219 102.609 33.632 103.323 33.632V31.632ZM102.798 31.4849C102.777 31.464 102.684 31.3674 102.714 30.9947L100.72 30.8373C100.661 31.5792 100.818 32.3333 101.384 32.8991L102.798 31.4849ZM102.714 30.993L103.132 25.581L101.138 25.427L100.72 30.839L102.714 30.993ZM102.957 24.9351L98.7111 18.7971L97.0663 19.9349L101.312 26.0729L102.957 24.9351ZM98.6887 18.766C98.6493 18.7135 98.6247 18.6552 98.6247 18.552H96.6247C96.6247 19.0648 96.7761 19.5492 97.0887 19.966L98.6887 18.766ZM98.6247 18.552C98.6247 18.4155 98.6659 18.2792 98.8446 18.108L97.4608 16.664C96.9354 17.1675 96.6247 17.8085 96.6247 18.552H98.6247ZM98.8446 18.108C99.0323 17.9281 99.1873 17.88 99.3407 17.88V15.88C98.614 15.88 97.977 16.1693 97.4608 16.664L98.8446 18.108ZM99.3407 17.88C99.4675 17.88 99.5431 17.9056 99.6482 18.066L101.321 16.97C100.869 16.2797 100.182 15.88 99.3407 15.88V17.88ZM99.6575 18.0799L103.199 23.2939L104.854 22.1701L101.312 16.9561L99.6575 18.0799ZM104.795 23.3722L109.195 18.0922L107.658 16.8118L103.258 22.0918L104.795 23.3722Z" fill="#1804FF"/>
<g filter="url(#filter2_i_1_17)">
<path d="M119.522 19.696L119.236 23.26H124.604C125.601 23.26 126.1 23.6707 126.1 24.492C126.1 25.02 125.961 25.4013 125.682 25.636C125.403 25.856 124.971 25.966 124.384 25.966H119.038L118.642 30.938C118.598 31.4513 118.415 31.862 118.092 32.17C117.769 32.478 117.351 32.632 116.838 32.632C116.325 32.632 115.921 32.478 115.628 32.17C115.335 31.8473 115.21 31.4293 115.254 30.916L116.222 18.596C116.266 18.0827 116.435 17.6867 116.728 17.408C117.036 17.1293 117.447 16.99 117.96 16.99H125.528C126.54 16.99 127.046 17.4153 127.046 18.266C127.046 18.7793 126.907 19.146 126.628 19.366C126.349 19.586 125.917 19.696 125.33 19.696H119.522ZM129.318 32.5C128.805 32.5 128.416 32.3607 128.152 32.082C127.903 31.8033 127.8 31.4073 127.844 30.894L128.812 18.552C128.856 18.0387 129.039 17.6353 129.362 17.342C129.699 17.034 130.132 16.88 130.66 16.88C131.188 16.88 131.591 17.034 131.87 17.342C132.163 17.65 132.288 18.0607 132.244 18.574L131.364 29.706H136.974C137.473 29.706 137.847 29.816 138.096 30.036C138.36 30.256 138.492 30.5713 138.492 30.982C138.492 31.51 138.345 31.8987 138.052 32.148C137.773 32.3827 137.348 32.5 136.776 32.5H129.318ZM144.464 19.652L144.178 23.282H149.788C150.287 23.282 150.661 23.392 150.91 23.612C151.174 23.8173 151.306 24.118 151.306 24.514C151.306 25.4673 150.742 25.944 149.612 25.944H143.98L143.672 29.838H149.722C150.206 29.838 150.58 29.948 150.844 30.168C151.108 30.388 151.24 30.696 151.24 31.092C151.24 32.0307 150.661 32.5 149.502 32.5H141.714C141.201 32.5 140.812 32.3607 140.548 32.082C140.299 31.8033 140.196 31.4073 140.24 30.894L141.208 18.596C141.252 18.0827 141.421 17.6867 141.714 17.408C142.022 17.1293 142.433 16.99 142.946 16.99H150.734C151.233 16.99 151.607 17.1 151.856 17.32C152.12 17.54 152.252 17.8407 152.252 18.222C152.252 19.1753 151.68 19.652 150.536 19.652H144.464ZM163.91 17.43C164.233 17.0487 164.621 16.858 165.076 16.858C165.472 16.858 165.817 17.0047 166.11 17.298C166.403 17.5913 166.55 17.9433 166.55 18.354C166.55 18.7353 166.403 19.102 166.11 19.454L161.534 24.668L165.56 30.036C165.78 30.3147 165.89 30.6227 165.89 30.96C165.89 31.4 165.714 31.796 165.362 32.148C165.01 32.4853 164.614 32.654 164.174 32.654C163.749 32.654 163.389 32.4633 163.096 32.082L159.356 26.956L155 32.082C154.677 32.4633 154.289 32.654 153.834 32.654C153.438 32.654 153.093 32.5073 152.8 32.214C152.507 31.9207 152.36 31.5687 152.36 31.158C152.36 30.762 152.514 30.388 152.822 30.036L157.552 24.58L153.834 19.454C153.629 19.19 153.526 18.8893 153.526 18.552C153.526 18.112 153.702 17.7233 154.054 17.386C154.406 17.034 154.802 16.858 155.242 16.858C155.682 16.858 156.041 17.0487 156.32 17.43L159.752 22.204L163.91 17.43Z" fill="#FF0404"/>
</g>
<path d="M119.522 19.696V18.696H118.599L118.525 19.616L119.522 19.696ZM119.236 23.26L118.239 23.18L118.153 24.26H119.236V23.26ZM125.682 25.636L126.302 26.4209L126.314 26.4111L126.326 26.4009L125.682 25.636ZM119.038 25.966V24.966H118.114L118.041 25.8866L119.038 25.966ZM118.642 30.938L119.638 31.0234L119.639 31.0174L118.642 30.938ZM118.092 32.17L118.782 32.8934L118.782 32.8934L118.092 32.17ZM115.628 32.17L114.888 32.8427L114.896 32.8513L114.904 32.8597L115.628 32.17ZM115.254 30.916L116.25 31.0014L116.251 30.9943L115.254 30.916ZM116.222 18.596L115.226 18.5106L115.225 18.5177L116.222 18.596ZM116.728 17.408L116.057 16.6665L116.048 16.6746L116.039 16.683L116.728 17.408ZM126.628 19.366L127.248 20.1509L127.248 20.1509L126.628 19.366ZM118.525 19.616L118.239 23.18L120.233 23.34L120.519 19.776L118.525 19.616ZM119.236 24.26H124.604V22.26H119.236V24.26ZM124.604 24.26C124.991 24.26 125.095 24.3436 125.09 24.3399C125.083 24.3336 125.078 24.324 125.08 24.3282C125.084 24.3385 125.1 24.3859 125.1 24.492H127.1C127.1 23.8705 126.902 23.241 126.362 22.7961C125.859 22.3818 125.215 22.26 124.604 22.26V24.26ZM125.1 24.492C125.1 24.6723 125.076 24.7776 125.056 24.8308C125.039 24.8767 125.029 24.8786 125.038 24.8711L126.326 26.4009C126.917 25.9031 127.1 25.1785 127.1 24.492H125.1ZM125.062 24.8511C125.043 24.8665 124.881 24.966 124.384 24.966V26.966C125.061 26.966 125.764 26.8455 126.302 26.4209L125.062 24.8511ZM124.384 24.966H119.038V26.966H124.384V24.966ZM118.041 25.8866L117.645 30.8586L119.639 31.0174L120.035 26.0454L118.041 25.8866ZM117.646 30.8526C117.619 31.1631 117.521 31.3327 117.402 31.4466L118.782 32.8934C119.308 32.3913 119.577 31.7395 119.638 31.0234L117.646 30.8526ZM117.402 31.4466C117.293 31.5502 117.136 31.632 116.838 31.632V33.632C117.567 33.632 118.246 33.4058 118.782 32.8934L117.402 31.4466ZM116.838 31.632C116.537 31.632 116.418 31.55 116.352 31.4803L114.904 32.8597C115.424 33.406 116.112 33.632 116.838 33.632V31.632ZM116.368 31.4973C116.296 31.4181 116.225 31.2922 116.25 31.0014L114.258 30.8306C114.195 31.5665 114.373 32.2766 114.888 32.8427L116.368 31.4973ZM116.251 30.9943L117.219 18.6743L115.225 18.5177L114.257 30.8377L116.251 30.9943ZM117.218 18.6814C117.247 18.343 117.345 18.2011 117.417 18.133L116.039 16.683C115.524 17.1722 115.285 17.8223 115.226 18.5106L117.218 18.6814ZM117.399 18.1495C117.482 18.0741 117.634 17.99 117.96 17.99V15.99C117.26 15.99 116.59 16.1846 116.057 16.6665L117.399 18.1495ZM117.96 17.99H125.528V15.99H117.96V17.99ZM125.528 17.99C125.714 17.99 125.841 18.0099 125.922 18.0327C125.962 18.0437 125.987 18.0546 126.003 18.0623C126.01 18.0661 126.015 18.0692 126.018 18.0712C126.022 18.0732 126.023 18.0744 126.023 18.0745C126.023 18.0746 126.023 18.074 126.021 18.0729C126.02 18.0717 126.019 18.0705 126.019 18.0694C126.017 18.0668 126.018 18.068 126.022 18.0764C126.029 18.0942 126.046 18.1503 126.046 18.266H128.046C128.046 17.6366 127.851 16.9979 127.31 16.5435C126.803 16.1171 126.15 15.99 125.528 15.99V17.99ZM126.046 18.266C126.046 18.4368 126.022 18.5299 126.007 18.5708C125.994 18.6033 125.991 18.5947 126.008 18.5811L127.248 20.1509C127.86 19.6678 128.046 18.9431 128.046 18.266H126.046ZM126.008 18.5811C125.989 18.5965 125.827 18.696 125.33 18.696V20.696C126.007 20.696 126.71 20.5755 127.248 20.1509L126.008 18.5811ZM125.33 18.696H119.522V20.696H125.33V18.696ZM128.152 32.082L127.407 32.7488L127.416 32.7594L127.426 32.7697L128.152 32.082ZM127.844 30.894L128.84 30.9794L128.841 30.9722L127.844 30.894ZM128.812 18.552L127.815 18.4666L127.815 18.4738L128.812 18.552ZM129.362 17.342L130.035 18.0819L130.036 18.0805L129.362 17.342ZM131.87 17.342L131.128 18.0129L131.137 18.0224L131.146 18.0317L131.87 17.342ZM132.244 18.574L131.247 18.4886L131.247 18.4952L132.244 18.574ZM131.364 29.706L130.367 29.6272L130.282 30.706H131.364V29.706ZM138.096 30.036L137.434 30.7858L137.445 30.7952L137.456 30.8042L138.096 30.036ZM138.052 32.148L138.696 32.9129L138.699 32.9099L138.052 32.148ZM129.318 31.5C128.983 31.5 128.896 31.413 128.878 31.3943L127.426 32.7697C127.936 33.3083 128.626 33.5 129.318 33.5V31.5ZM128.897 31.4152C128.893 31.4102 128.811 31.3251 128.84 30.9794L126.847 30.8086C126.789 31.4896 126.912 32.1965 127.407 32.7488L128.897 31.4152ZM128.841 30.9722L129.809 18.6302L127.815 18.4738L126.847 30.8158L128.841 30.9722ZM129.808 18.6374C129.835 18.3268 129.932 18.1756 130.035 18.0819L128.689 16.6021C128.147 17.0951 127.877 17.7506 127.815 18.4666L129.808 18.6374ZM130.036 18.0805C130.161 17.9668 130.34 17.88 130.66 17.88V15.88C129.924 15.88 129.238 16.1012 128.688 16.6035L130.036 18.0805ZM130.66 17.88C130.987 17.88 131.088 17.9683 131.128 18.0129L132.611 16.6711C132.094 16.0997 131.389 15.88 130.66 15.88V17.88ZM131.146 18.0317C131.2 18.0888 131.273 18.195 131.247 18.4886L133.24 18.6594C133.303 17.9263 133.126 17.2112 132.594 16.6523L131.146 18.0317ZM131.247 18.4952L130.367 29.6272L132.361 29.7848L133.241 18.6528L131.247 18.4952ZM131.364 30.706H136.974V28.706H131.364V30.706ZM136.974 30.706C137.153 30.706 137.272 30.7261 137.346 30.7479C137.382 30.7584 137.405 30.7686 137.418 30.7754C137.424 30.7788 137.428 30.7815 137.431 30.7832C137.433 30.7848 137.434 30.7858 137.434 30.7858L138.757 29.2862C138.253 28.841 137.598 28.706 136.974 28.706V30.706ZM137.456 30.8042C137.465 30.8119 137.467 30.815 137.47 30.8236C137.476 30.837 137.492 30.8831 137.492 30.982H139.492C139.492 30.3385 139.273 29.7152 138.736 29.2678L137.456 30.8042ZM137.492 30.982C137.492 31.1566 137.467 31.2609 137.446 31.3164C137.428 31.3652 137.412 31.3797 137.404 31.3861L138.699 32.9099C139.291 32.4072 139.492 31.6889 139.492 30.982H137.492ZM137.408 31.3831C137.387 31.4003 137.239 31.5 136.776 31.5V33.5C137.456 33.5 138.159 33.365 138.696 32.9129L137.408 31.3831ZM136.776 31.5H129.318V33.5H136.776V31.5ZM144.464 19.652V18.652H143.54L143.467 19.5735L144.464 19.652ZM144.178 23.282L143.181 23.2035L143.096 24.282H144.178V23.282ZM150.91 23.612L150.249 24.3618L150.272 24.3823L150.296 24.4014L150.91 23.612ZM143.98 25.944V24.944H143.056L142.983 25.8652L143.98 25.944ZM143.672 29.838L142.675 29.7592L142.59 30.838H143.672V29.838ZM140.548 32.082L139.803 32.7488L139.813 32.7594L139.822 32.7697L140.548 32.082ZM140.24 30.894L141.237 30.9794L141.237 30.9725L140.24 30.894ZM141.208 18.596L140.212 18.5106L140.211 18.5175L141.208 18.596ZM141.714 17.408L141.043 16.6665L141.034 16.6746L141.026 16.683L141.714 17.408ZM151.856 17.32L151.195 18.0698L151.205 18.0792L151.216 18.0882L151.856 17.32ZM143.467 19.5735L143.181 23.2035L145.175 23.3605L145.461 19.7305L143.467 19.5735ZM144.178 24.282H149.788V22.282H144.178V24.282ZM149.788 24.282C149.967 24.282 150.087 24.3021 150.161 24.3239C150.197 24.3344 150.219 24.3446 150.232 24.3514C150.238 24.3548 150.243 24.3575 150.245 24.3592C150.248 24.3608 150.249 24.3618 150.249 24.3618L151.572 22.8622C151.067 22.417 150.412 22.282 149.788 22.282V24.282ZM150.296 24.4014C150.3 24.4044 150.299 24.4041 150.296 24.4002C150.293 24.3962 150.292 24.3931 150.292 24.3935C150.292 24.3938 150.306 24.4265 150.306 24.514H152.306C152.306 23.8731 152.078 23.2534 151.524 22.8226L150.296 24.4014ZM150.306 24.514C150.306 24.6558 150.285 24.7349 150.27 24.7723C150.258 24.8037 150.247 24.8142 150.238 24.8224C150.21 24.8459 150.06 24.944 149.612 24.944V26.944C150.294 26.944 150.991 26.8038 151.528 26.3506C152.097 25.8701 152.306 25.1934 152.306 24.514H150.306ZM149.612 24.944H143.98V26.944H149.612V24.944ZM142.983 25.8652L142.675 29.7592L144.669 29.9168L144.977 26.0228L142.983 25.8652ZM143.672 30.838H149.722V28.838H143.672V30.838ZM149.722 30.838C150.067 30.838 150.181 30.9169 150.204 30.9362L151.485 29.3998C150.98 28.9791 150.346 28.838 149.722 28.838V30.838ZM150.204 30.9362C150.213 30.9436 150.217 30.9481 150.218 30.9495C150.219 30.9508 150.22 30.953 150.222 30.9579C150.226 30.9669 150.24 31.0052 150.24 31.092H152.24C152.24 30.4497 152.013 29.8399 151.485 29.3998L150.204 30.9362ZM150.24 31.092C150.24 31.2256 150.22 31.2968 150.207 31.3275C150.197 31.3521 150.188 31.3613 150.176 31.371C150.14 31.4006 149.973 31.5 149.502 31.5V33.5C150.191 33.5 150.892 33.3648 151.435 32.925C152.018 32.4526 152.24 31.7777 152.24 31.092H150.24ZM149.502 31.5H141.714V33.5H149.502V31.5ZM141.714 31.5C141.379 31.5 141.292 31.413 141.274 31.3943L139.822 32.7697C140.333 33.3083 141.023 33.5 141.714 33.5V31.5ZM141.294 31.4152C141.289 31.4102 141.207 31.3251 141.237 30.9794L139.244 30.8086C139.186 31.4896 139.309 32.1965 139.803 32.7488L141.294 31.4152ZM141.237 30.9725L142.205 18.6745L140.211 18.5175L139.243 30.8155L141.237 30.9725ZM142.205 18.6814C142.234 18.343 142.331 18.2011 142.403 18.133L141.026 16.683C140.511 17.1722 140.271 17.8223 140.212 18.5106L142.205 18.6814ZM142.385 18.1495C142.469 18.0741 142.62 17.99 142.946 17.99V15.99C142.246 15.99 141.576 16.1846 141.043 16.6665L142.385 18.1495ZM142.946 17.99H150.734V15.99H142.946V17.99ZM150.734 17.99C150.913 17.99 151.033 18.0101 151.107 18.0319C151.143 18.0424 151.165 18.0526 151.178 18.0594C151.184 18.0628 151.189 18.0655 151.191 18.0672C151.194 18.0688 151.195 18.0698 151.195 18.0698L152.518 16.5702C152.013 16.125 151.358 15.99 150.734 15.99V17.99ZM151.216 18.0882C151.227 18.0974 151.232 18.1033 151.234 18.1055C151.235 18.1075 151.236 18.1093 151.238 18.1125C151.24 18.1173 151.252 18.1476 151.252 18.222H153.252C153.252 17.5806 153.015 16.9841 152.497 16.5518L151.216 18.0882ZM151.252 18.222C151.252 18.3624 151.231 18.44 151.217 18.4762C151.205 18.5063 151.194 18.5171 151.183 18.5263C151.151 18.5529 150.994 18.652 150.536 18.652V20.652C151.223 20.652 151.923 20.5128 152.464 20.0627C153.039 19.5835 153.252 18.9056 153.252 18.222H151.252ZM150.536 18.652H144.464V20.652H150.536V18.652ZM163.91 17.43L164.664 18.0868L164.669 18.0814L164.673 18.0759L163.91 17.43ZM166.11 17.298L166.817 16.5909L166.817 16.5909L166.11 17.298ZM166.11 19.454L166.862 20.1136L166.87 20.104L166.878 20.0942L166.11 19.454ZM161.534 24.668L160.782 24.0084L160.247 24.6185L160.734 25.268L161.534 24.668ZM165.56 30.036L164.76 30.636L164.767 30.6459L164.775 30.6556L165.56 30.036ZM165.362 32.148L166.054 32.87L166.062 32.8626L166.069 32.8551L165.362 32.148ZM163.096 32.082L162.288 32.6714L162.296 32.6817L162.303 32.6917L163.096 32.082ZM159.356 26.956L160.164 26.3666L159.416 25.3413L158.594 26.3084L159.356 26.956ZM155 32.082L154.238 31.4344L154.237 31.4361L155 32.082ZM152.8 32.214L153.507 31.5069L153.507 31.5069L152.8 32.214ZM152.822 30.036L153.575 30.6945L153.578 30.691L152.822 30.036ZM157.552 24.58L158.308 25.235L158.827 24.6353L158.361 23.9929L157.552 24.58ZM153.834 19.454L154.643 18.8669L154.634 18.8533L154.623 18.8401L153.834 19.454ZM154.054 17.386L154.746 18.108L154.754 18.1006L154.761 18.0931L154.054 17.386ZM156.32 17.43L157.132 16.8463L157.127 16.84L156.32 17.43ZM159.752 22.204L158.94 22.7877L159.677 23.8128L160.506 22.8608L159.752 22.204ZM164.673 18.0759C164.827 17.8941 164.947 17.858 165.076 17.858V15.858C164.296 15.858 163.638 16.2032 163.147 16.7841L164.673 18.0759ZM165.076 17.858C165.193 17.858 165.287 17.8894 165.403 18.0051L166.817 16.5909C166.346 16.12 165.751 15.858 165.076 15.858V17.858ZM165.403 18.0051C165.511 18.113 165.55 18.2116 165.55 18.354H167.55C167.55 17.6751 167.296 17.0696 166.817 16.5909L165.403 18.0051ZM165.55 18.354C165.55 18.4566 165.517 18.6038 165.342 18.8138L166.878 20.0942C167.29 19.6002 167.55 19.0141 167.55 18.354H165.55ZM165.358 18.7944L160.782 24.0084L162.286 25.3276L166.862 20.1136L165.358 18.7944ZM160.734 25.268L164.76 30.636L166.36 29.436L162.334 24.068L160.734 25.268ZM164.775 30.6556C164.864 30.7678 164.89 30.8599 164.89 30.96H166.89C166.89 30.3854 166.696 29.8615 166.345 29.4164L164.775 30.6556ZM164.89 30.96C164.89 31.0991 164.846 31.2496 164.655 31.4409L166.069 32.8551C166.582 32.3424 166.89 31.7009 166.89 30.96H164.89ZM164.67 31.426C164.482 31.6059 164.327 31.654 164.174 31.654V33.654C164.901 33.654 165.538 33.3647 166.054 32.87L164.67 31.426ZM164.174 31.654C164.103 31.654 164.021 31.6443 163.889 31.4723L162.303 32.6917C162.758 33.2824 163.394 33.654 164.174 33.654V31.654ZM163.904 31.4926L160.164 26.3666L158.548 27.5454L162.288 32.6714L163.904 31.4926ZM158.594 26.3084L154.238 31.4344L155.762 32.7296L160.118 27.6036L158.594 26.3084ZM154.237 31.4361C154.083 31.6179 153.963 31.654 153.834 31.654V33.654C154.614 33.654 155.272 33.3088 155.763 32.7279L154.237 31.4361ZM153.834 31.654C153.717 31.654 153.623 31.6226 153.507 31.5069L152.093 32.9211C152.564 33.392 153.159 33.654 153.834 33.654V31.654ZM153.507 31.5069C153.399 31.399 153.36 31.3004 153.36 31.158H151.36C151.36 31.8369 151.614 32.4424 152.093 32.9211L153.507 31.5069ZM153.36 31.158C153.36 31.0468 153.396 30.899 153.574 30.6945L152.069 29.3775C151.632 29.877 151.36 30.4772 151.36 31.158H153.36ZM153.578 30.691L158.308 25.235L156.796 23.925L152.066 29.381L153.578 30.691ZM158.361 23.9929L154.643 18.8669L153.024 20.0411L156.742 25.1671L158.361 23.9929ZM154.623 18.8401C154.556 18.7532 154.526 18.669 154.526 18.552H152.526C152.526 19.1096 152.701 19.6268 153.045 20.0679L154.623 18.8401ZM154.526 18.552C154.526 18.4155 154.567 18.2792 154.746 18.108L153.362 16.664C152.837 17.1675 152.526 17.8085 152.526 18.552H154.526ZM154.761 18.0931C154.952 17.9018 155.103 17.858 155.242 17.858V15.858C154.501 15.858 153.86 16.1662 153.347 16.6789L154.761 18.0931ZM155.242 17.858C155.336 17.858 155.406 17.8743 155.513 18.02L157.127 16.84C156.676 16.2231 156.027 15.858 155.242 15.858V17.858ZM155.508 18.0137L158.94 22.7877L160.564 21.6203L157.132 16.8463L155.508 18.0137ZM160.506 22.8608L164.664 18.0868L163.156 16.7732L158.998 21.5472L160.506 22.8608Z" fill="#FF0404"/>
<defs>
<filter id="filter0_i_1_17" x="0" y="0.5" width="50" height="54" filterUnits="userSpaceOnUse" color-interpolation-filters="sRGB">
<feFlood flood-opacity="0" result="BackgroundImageFix"/>
<feBlend mode="normal" in="SourceGraphic" in2="BackgroundImageFix" result="shape"/>
<feColorMatrix in="SourceAlpha" type="matrix" values="0 0 0 0 0 0 0 0 0 0 0 0 0 0 0 0 0 0 127 0" result="hardAlpha"/>
<feOffset dy="4"/>
<feGaussianBlur stdDeviation="2"/>
<feComposite in2="hardAlpha" operator="arithmetic" k2="-1" k3="1"/>
<feColorMatrix type="matrix" values="0 0 0 0 0 0 0 0 0 0 0 0 0 0 0 0 0 0 0.25 0"/>
<feBlend mode="normal" in2="shape" result="effect1_innerShadow_1_17"/>
</filter>
<filter id="filter1_i_1_17" x="56.188" y="16.836" width="54.9667" height="19.796" filterUnits="userSpaceOnUse" color-interpolation-filters="sRGB">
<feFlood flood-opacity="0" result="BackgroundImageFix"/>
<feBlend mode="normal" in="SourceGraphic" in2="BackgroundImageFix" result="shape"/>
<feColorMatrix in="SourceAlpha" type="matrix" values="0 0 0 0 0 0 0 0 0 0 0 0 0 0 0 0 0 0 127 0" result="hardAlpha"/>
<feOffset dy="4"/>
<feGaussianBlur stdDeviation="2"/>
<feComposite in2="hardAlpha" operator="arithmetic" k2="-1" k3="1"/>
<feColorMatrix type="matrix" values="0 0 0 0 0 0 0 0 0 0 0 0 0 0 0 0 0 0 0.25 0"/>
<feBlend mode="normal" in2="shape" result="effect1_innerShadow_1_17"/>
</filter>
<filter id="filter2_i_1_17" x="115.188" y="16.858" width="51.3619" height="19.796" filterUnits="userSpaceOnUse" color-interpolation-filters="sRGB">
<feFlood flood-opacity="0" result="BackgroundImageFix"/>
<feBlend mode="normal" in="SourceGraphic" in2="BackgroundImageFix" result="shape"/>
<feColorMatrix in="SourceAlpha" type="matrix" values="0 0 0 0 0 0 0 0 0 0 0 0 0 0 0 0 0 0 127 0" result="hardAlpha"/>
<feOffset dy="4"/>
<feGaussianBlur stdDeviation="2"/>
<feComposite in2="hardAlpha" operator="arithmetic" k2="-1" k3="1"/>
<feColorMatrix type="matrix" values="0 0 0 0 0 0 0 0 0 0 0 0 0 0 0 0 0 0 0.25 0"/>
<feBlend mode="normal" in2="shape" result="effect1_innerShadow_1_17"/>
</filter>
</defs>
</svg>
